<?xml version="1.0" encoding="UTF-8" standalone="no"?>
<!-- Created with Inkscape (http://www.inkscape.org/) -->

<svg
   xmlns:dc="http://purl.org/dc/elements/1.1/"
   xmlns:cc="http://creativecommons.org/ns#"
   xmlns:rdf="http://www.w3.org/1999/02/22-rdf-syntax-ns#"
   xmlns:svg="http://www.w3.org/2000/svg"
   xmlns="http://www.w3.org/2000/svg"
   xmlns:sodipodi="http://sodipodi.sourceforge.net/DTD/sodipodi-0.dtd"
   xmlns:inkscape="http://www.inkscape.org/namespaces/inkscape"
   width="520"
   height="98"
   id="svg2852"
   version="1.1"
   inkscape:version="0.47 r22583"
   sodipodi:docname="logo.svg"
   inkscape:export-filename="/home/marc/Documents/github.com/flask-alcohol/logo/logo.png"
   inkscape:export-xdpi="90"
   inkscape:export-ydpi="90">
  <defs
     id="defs2854">
    <inkscape:perspective
       sodipodi:type="inkscape:persp3d"
       inkscape:vp_x="0 : 526.18109 : 1"
       inkscape:vp_y="0 : 1000 : 0"
       inkscape:vp_z="744.09448 : 526.18109 : 1"
       inkscape:persp3d-origin="372.04724 : 350.78739 : 1"
       id="perspective2860" />
    <inkscape:perspective
       id="perspective2870"
       inkscape:persp3d-origin="0.5 : 0.33333333 : 1"
       inkscape:vp_z="1 : 0.5 : 1"
       inkscape:vp_y="0 : 1000 : 0"
       inkscape:vp_x="0 : 0.5 : 1"
       sodipodi:type="inkscape:persp3d" />
    <inkscape:perspective
       id="perspective4075"
       inkscape:persp3d-origin="116.28 : 73.039998 : 1"
       inkscape:vp_z="232.56 : 109.56 : 1"
       inkscape:vp_y="0 : 1000 : 0"
       inkscape:vp_x="0 : 109.56 : 1"
       sodipodi:type="inkscape:persp3d" />
    <inkscape:perspective
       id="perspective3739"
       inkscape:persp3d-origin="0.5 : 0.33333333 : 1"
       inkscape:vp_z="1 : 0.5 : 1"
       inkscape:vp_y="0 : 1000 : 0"
       inkscape:vp_x="0 : 0.5 : 1"
       sodipodi:type="inkscape:persp3d" />
  </defs>
  <sodipodi:namedview
     id="base"
     pagecolor="#ffffff"
     bordercolor="#666666"
     borderopacity="1.0"
     inkscape:pageopacity="0.0"
     inkscape:pageshadow="2"
     inkscape:zoom="0.98994949"
     inkscape:cx="244.06553"
     inkscape:cy="-129.92874"
     inkscape:document-units="px"
     inkscape:current-layer="layer1"
     showgrid="false"
     inkscape:window-width="1920"
     inkscape:window-height="1031"
     inkscape:window-x="0"
     inkscape:window-y="24"
     inkscape:window-maximized="1" />
  <metadata
     id="metadata2857">
    <rdf:RDF>
      <cc:Work
         rdf:about="">
        <dc:format>image/svg+xml</dc:format>
        <dc:type
           rdf:resource="http://purl.org/dc/dcmitype/StillImage" />
        <dc:title></dc:title>
      </cc:Work>
    </rdf:RDF>
  </metadata>
  <g
     inkscape:label="Layer 1"
     inkscape:groupmode="layer"
     id="layer1"
     transform="translate(2.0109234,-199.20017)">
    <g
       style="font-size:40px;font-style:normal;font-weight:normal;fill:#000000;fill-opacity:1;stroke:none;font-family:Bitstream Vera Sans"
       id="text3850"
       transform="matrix(0.56439938,0,0,0.56233587,-90.349216,218.54859)">
      <path
         style="font-size:144px;font-family:High Tower Text;-inkscape-font-specification:High Tower Text"
         id="path2830"
         d="m 229.85182,43.77803 c -0.79695,3.140714 -1.28913,8.414146 -1.47656,15.820313 -7e-5,1.453199 -0.65632,2.179761 -1.96875,2.179687 -1.31257,7.4e-5 -2.22663,-0.632738 -2.74219,-1.898437 -1.40631,-3.421796 -2.74225,-5.812419 -4.00781,-7.171875 -1.50006,-1.593666 -3.49225,-2.554603 -5.97656,-2.882813 -2.67193,-0.421789 -9.32818,-0.632726 -19.96875,-0.632812 -2.43754,8.6e-5 -4.03129,0.257898 -4.78125,0.773437 -0.46879,0.32821 -0.70316,1.031335 -0.70313,2.109375 l 0,31.851563 c -3e-5,1.078175 0.67966,1.5938 2.03906,1.546875 4.17184,-0.04682 10.21871,-0.328075 18.14063,-0.84375 1.54682,-0.187449 2.58979,-0.691355 3.12891,-1.511719 0.539,-0.820259 1.06634,-2.941351 1.58203,-6.363281 0.32806,-1.87494 1.42963,-2.601502 3.30468,-2.179688 1.59369,0.328186 2.27338,1.054747 2.03907,2.179688 -1.31256,6.375052 -1.73444,14.671919 -1.26563,24.890627 0.0468,1.21878 -0.72662,1.87503 -2.32031,1.96875 -1.31256,0.14065 -2.13287,-0.56247 -2.46094,-2.10938 -1.2188,-5.859333 -3.48052,-8.988236 -6.78515,-9.386716 -3.30474,-0.398394 -8.68364,-0.597612 -16.13672,-0.597656 -0.84379,4.4e-5 -1.26566,0.304731 -1.26563,0.914062 l 0,31.64063 c -3e-5,2.34375 0.86716,3.9375 2.60156,4.78125 1.35934,0.70313 4.28903,1.33594 8.78907,1.89843 2.29683,0.23438 3.30464,1.24219 3.02343,3.02344 -0.28129,1.54688 -2.34379,2.15625 -6.1875,1.82813 -11.1094,-0.89063 -20.27345,-0.84375 -27.49218,0.14062 -2.01564,0.28125 -3.02345,-0.53906 -3.02344,-2.46094 -1e-5,-1.21874 1.0078,-1.92187 3.02344,-2.10937 4.59373,-0.51562 6.8906,-4.54687 6.89062,-12.09375 l 0,-60.187502 c -2e-5,-3.093671 -0.5508,-5.472575 -1.65234,-7.136719 -1.10158,-1.663977 -3.15236,-3.175695 -6.15235,-4.535156 -1.87501,-0.843661 -2.57813,-1.992098 -2.10937,-3.445313 0.23436,-0.890532 0.60936,-1.382719 1.125,-1.476562 0.46874,-0.140532 1.71092,-0.04678 3.72656,0.28125 2.95311,0.468842 9.91404,0.703217 20.88281,0.703125 12.93746,9.2e-5 24.11713,-0.281158 33.53907,-0.84375 3.14055,-0.187407 4.71086,0.07041 4.71093,0.773437 -7e-5,0.187592 -0.0235,0.375092 -0.0703,0.5625 z" />
      <path
         style="font-size:144px;font-family:High Tower Text;-inkscape-font-specification:High Tower Text"
         id="path2832"
         d="m 275.55495,133.14522 c -4e-5,1.875 -1.05473,2.69531 -3.16407,2.46094 -6.46877,-0.60938 -14.48439,-0.51563 -24.04687,0.28125 -1.92189,0.18749 -3.10548,0.14062 -3.55078,-0.14063 -0.44532,-0.28125 -0.66798,-1.05469 -0.66797,-2.32031 -1e-5,-1.125 1.27733,-2.07422 3.83203,-2.84766 2.55467,-0.77343 3.83202,-3.08202 3.83203,-6.92578 l 0,-63.632812 c -1e-5,-3.796796 -0.55079,-6.585856 -1.65234,-8.367188 -1.10158,-1.781164 -3.03517,-3.163975 -5.80078,-4.148437 -1.45313,-0.515537 -2.1797,-1.242099 -2.17969,-2.179688 -1e-5,-1.406158 1.05468,-2.460845 3.16406,-3.164062 3.18749,-1.031156 6.49217,-2.624904 9.91406,-4.78125 2.81248,-1.687401 4.59373,-2.53115 5.34375,-2.53125 1.73435,1e-4 2.60154,1.195412 2.60157,3.585937 -3e-5,-0.187403 -0.0938,2.156345 -0.28125,7.03125 -0.14065,4.64071 -0.18753,9.211018 -0.14063,13.710938 l 0.28125,62.789062 c -2e-5,2.85939 0.7031,4.9336 2.10938,6.22266 1.40622,1.28906 3.82028,2.14453 7.24218,2.5664 2.10934,0.23438 3.16403,1.03126 3.16407,2.39063 z" />
      <path
         style="font-size:144px;font-family:High Tower Text;-inkscape-font-specification:High Tower Text"
         id="path2834"
         d="m 339.67995,128.43428 c -7e-5,0.98438 -1.79303,2.47266 -5.37891,4.46484 -3.58599,1.99219 -6.45708,2.98828 -8.61328,2.98829 -1.82817,-10e-6 -3.44536,-0.89063 -4.85156,-2.67188 -1.40629,-1.78125 -2.39067,-2.67187 -2.95313,-2.67187 -0.42191,0 -2.64847,0.96094 -6.67969,2.88281 -4.03128,1.92187 -8.08596,2.88281 -12.16406,2.88281 -3.84377,0 -7.0547,-1.125 -9.63281,-3.375 -2.81251,-2.48437 -4.21876,-5.85937 -4.21875,-10.125 -1e-5,-8.10935 9.28123,-13.92185 27.84375,-17.4375 3.18746,-0.60934 4.80465,-1.89841 4.85156,-3.86719 l 0.14063,-4.499997 c 0.28121,-7.687454 -3.11723,-11.5312 -10.19532,-11.53125 -2.01565,5e-5 -3.9258,1.804735 -5.73046,5.414062 -1.80471,3.609416 -4.39456,5.554727 -7.76954,5.835938 -3.84376,0.375038 -5.76563,-1.242148 -5.76562,-4.851563 -1e-5,-2.249954 2.85936,-4.874951 8.57812,-7.875 5.99998,-3.14057 11.7656,-4.710881 17.29688,-4.710937 9.51558,5.6e-5 14.22651,4.523489 14.13281,13.570312 l -0.28125,28.968755 c -0.0469,3.04688 1.24214,4.57032 3.86719,4.57031 0.51557,1e-5 1.49994,-0.11718 2.95312,-0.35156 1.45307,-0.23437 2.29682,-0.35156 2.53125,-0.35157 1.35932,1e-5 2.039,0.91407 2.03907,2.74219 z M 318.0237,112.40303 c 0.0468,-1.17185 -0.2227,-1.94529 -0.8086,-2.32031 -0.58597,-0.37498 -1.51175,-0.44529 -2.77734,-0.21094 -11.2969,2.01565 -16.94533,5.69533 -16.94531,11.03906 -2e-5,5.39064 2.92966,8.08595 8.78906,8.08594 2.34372,1e-5 4.75778,-0.44531 7.24219,-1.33594 2.90621,-1.03124 4.35933,-2.27342 4.35937,-3.72656 z" />
      <path
         style="font-size:144px;font-family:High Tower Text;-inkscape-font-specification:High Tower Text"
         id="path2836"
         d="m 392.13307,120.06709 c -5e-5,4.96876 -1.9102,8.91798 -5.73047,11.84766 -3.82035,2.92969 -9.03519,4.39453 -15.64453,4.39453 -4.40627,0 -8.81252,-0.46875 -13.21875,-1.40625 -3.79688,-0.84375 -6.00001,-1.61719 -6.60937,-2.32031 -0.37501,-0.65625 -0.56251,-3.86718 -0.5625,-9.63281 -1e-5,-2.48436 0.56249,-3.77343 1.6875,-3.86719 1.12499,-0.14061 2.08592,0.46876 2.88281,1.82812 3.51561,6.14064 9.18748,9.21095 17.01562,9.21094 6.60934,1e-5 9.91403,-2.29687 9.91407,-6.89062 -4e-5,-2.01562 -0.75004,-3.70311 -2.25,-5.0625 -1.64066,-1.54686 -4.82816,-3.35155 -9.5625,-5.41407 -6.84377,-3.04685 -11.41408,-5.71872 -13.71094,-8.01562 -2.48439,-2.43747 -3.72657,-5.718716 -3.72656,-9.843752 -1e-5,-5.062455 1.9453,-8.999951 5.83593,-11.8125 3.60936,-2.718695 8.43748,-4.078069 14.48438,-4.078125 3.79684,5.6e-5 7.26559,0.304743 10.40625,0.914062 3.37496,0.60943 5.13277,1.359429 5.27344,2.25 0.37495,2.625051 1.14839,6.421922 2.32031,11.390625 0.14058,0.609416 -0.51567,1.101603 -1.96875,1.476563 -1.54692,0.328165 -2.57817,0.07035 -3.09375,-0.773438 -3.70317,-6.046828 -8.39066,-9.070262 -14.0625,-9.070312 -6.4219,5e-5 -9.63283,2.062548 -9.63281,6.1875 -2e-5,2.296916 0.86716,4.12504 2.60156,5.484375 1.54685,1.171912 5.17966,3.000035 10.89844,5.484372 5.99996,2.57816 10.07808,4.89847 12.23437,6.96094 2.81245,2.6719 4.2187,6.25783 4.21875,10.75781 z" />
      <path
         style="font-size:144px;font-family:High Tower Text;-inkscape-font-specification:High Tower Text"
         id="path2838"
         d="m 473.69557,132.72334 c -7e-5,1.64063 -1.10163,2.50782 -3.30469,2.60157 -3.28131,0.0469 -7.57037,0.28124 -12.86718,0.70312 -2.62506,0.51562 -4.50006,0.1875 -5.625,-0.98437 -7.4063,-7.96875 -13.68754,-16.31249 -18.84375,-25.03125 -0.42191,-0.74998 -0.96097,-1.12498 -1.61719,-1.125 -0.79691,2e-5 -2.17972,0.70315 -4.14844,2.10937 -2.20315,1.21877 -3.30471,2.95315 -3.30469,5.20313 -2e-5,1.59376 0.0469,3.89064 0.14063,6.89062 0.0937,3.00001 0.84372,4.96876 2.25,5.90625 0.98435,0.65626 3.25778,1.17188 6.82031,1.54688 2.20309,0.28125 3.30465,1.10156 3.30469,2.46093 -4e-5,1.07813 -0.17582,1.7461 -0.52734,2.00391 -0.3516,0.25781 -1.27738,0.31641 -2.77735,0.17578 -4.68753,-0.42187 -12.60939,-0.1875 -23.76562,0.70313 -2.81251,0.23437 -4.33595,-0.11719 -4.57032,-1.05469 -0.0937,-0.32813 -0.14063,-0.79688 -0.14062,-1.40625 -1e-5,-1.45312 1.42968,-2.55469 4.28906,-3.30469 2.57811,-0.65624 3.86718,-3.67968 3.86719,-9.07031 l 0,-61.453127 c -1e-5,-3.843671 -0.37501,-6.515543 -1.125,-8.015625 -1.03126,-1.92179 -3.18751,-3.421788 -6.46875,-4.5 -1.54688,-0.515536 -2.32032,-1.242098 -2.32031,-2.179688 -1e-5,-1.359283 1.10155,-2.413969 3.30468,-3.164062 3.51562,-1.17178 6.86718,-2.788966 10.05469,-4.851563 2.57811,-1.6874 4.17186,-2.531149 4.78125,-2.53125 1.92185,1.01e-4 2.88279,1.21885 2.88281,3.65625 -2e-5,-0.328027 -0.0235,1.992283 -0.0703,6.960938 -0.0469,3.421962 -0.0703,8.015707 -0.0703,13.78125 l 0.14062,44.015627 c -2e-5,1.21878 0.3281,1.82815 0.98438,1.82812 0.7031,3e-5 1.78122,-0.60934 3.23437,-1.82812 3.8906,-3.046842 8.67184,-7.031213 14.34375,-11.953127 1.12496,-1.17183 1.68746,-2.109329 1.6875,-2.8125 -4e-5,-1.265577 -1.89848,-2.156201 -5.69531,-2.671875 -1.64066,-0.18745 -2.4141,-1.101512 -2.32031,-2.742188 0.14059,-1.64057 0.9609,-2.343695 2.46094,-2.109375 3.37495,0.468805 8.29682,0.726617 14.76562,0.773438 4.49994,0.04693 8.9765,0.07037 13.42969,0.07031 1.45306,0.04693 2.17962,0.914116 2.17969,2.601563 -7e-5,1.5938 -1.14851,2.460986 -3.44532,2.601562 -3.60943,0.140674 -7.00787,0.960986 -10.19531,2.460938 -4.45317,2.015669 -9.21098,5.554728 -14.27344,10.617187 -0.37504,0.281286 -0.56254,0.632847 -0.5625,1.054687 -4e-5,0.65629 0.79684,2.2266 2.39063,4.71094 5.85933,8.90627 11.39057,15.63283 16.59375,20.17969 3.32806,2.85938 6.44525,4.28907 9.35156,4.28906 2.15618,1e-5 3.49212,0.15235 4.00781,0.45703 0.51556,0.30469 0.77337,1.11329 0.77344,2.42578 z" />
    </g>
    <text
       xml:space="preserve"
       style="font-size:11.18885899px;font-style:normal;font-variant:normal;font-weight:normal;font-stretch:normal;fill:#ffffff;fill-opacity:1;stroke:#000000;stroke-width:1;stroke-opacity:1;font-family:Liberation Sans;-inkscape-font-specification:Liberation Sans"
       x="213.1983"
       y="293.52982"
       id="text3032"
       transform="scale(0.99899003,1.001011)"><tspan
         sodipodi:role="line"
         id="tspan3034"
         x="213.1983"
         y="293.52982"
         style="font-size:67.13315582px;font-style:normal;font-variant:normal;font-weight:bold;font-stretch:normal;fill:#ffffff;fill-opacity:1;stroke:#000000;stroke-width:1;stroke-opacity:1;font-family:CartoGothic Std;-inkscape-font-specification:CartoGothic Std Bold">KVsession</tspan></text>
    <g
       id="g4211"
       transform="matrix(0,0.52947423,-0.52947423,0,407.58023,-138.44244)">
      <path
         sodipodi:nodetypes="scccccccccccccccccccccccs"
         inkscape:connector-curvature="0"
         id="path4196"
         d="m 687.21067,362.13255 c -9.7257,0.0685 -19.44655,4.20668 -26.28594,11.375 -12.2513,12.27526 -14.68109,32.88816 -6.57911,48.1875 6.91425,13.84205 22.5984,22.24852 37.61662,20.125 13.3149,-1.59914 24.54392,-11.48718 29.69733,-23.9375 l 9.53361,5.46875 c 2.79144,1.74168 4.35607,-0.44379 4.35561,-3 l -0.18276,-10.21875 10.84334,0.25 7.37102,6.9375 9.59453,-9.71498 8.77213,8.37123 6.48772,0 8.98535,-9 6.50495,5.49864 8.27817,-0.34752 7.18167,-6.90248 7.73254,-7.12364 c -1.31156,-4.36846 -5.04873,-7.06971 -11.90939,-10.0862 l -70.35983,0.55495 -0.42642,-7.78125 c -0.0335,-2.77651 -3.3696,-3.94462 -5.5435,-2.5 l -7.91929,6.46875 c -4.16904,-9.04068 -11.57065,-16.51467 -20.74245,-20.125 -4.15363,-1.74292 -8.58513,-2.53112 -13.0059,-2.5 z"
         style="fill:#ffffff;stroke:#000000;stroke-width:3.77733183;stroke-linecap:round;stroke-linejoin:round;stroke-miterlimit:4;stroke-opacity:1;stroke-dasharray:none;stroke-dashoffset:3.00300009" />
      <path
         style="fill:#ffffff;stroke:#000000;stroke-width:3.77733183;stroke-linecap:round;stroke-linejoin:round;stroke-miterlimit:4;stroke-opacity:1;stroke-dasharray:none;stroke-dashoffset:3.00300009"
         d="m 678.73948,400.9253 c 0.10517,4.09879 -3.20979,8.08083 -7.4505,8.56346 -3.42032,0.45829 -6.99569,-1.35993 -8.57038,-4.34725 -1.84518,-3.30182 -1.28981,-7.75029 1.50035,-10.39946 2.26565,-2.25022 5.91888,-3.11286 8.94598,-1.90919 3.17267,1.18345 5.43031,4.28734 5.56024,7.58437 0.01,0.16918 0.0145,0.33863 0.0143,0.50807 z"
         id="path4192"
         inkscape:connector-curvature="0" />
      <path
         inkscape:connector-curvature="0"
         id="path4201"
         d="m 718.00255,401.09687 97.1069,-1.19677 -4.5477,3.35094 -81.85871,1.19677 z"
         style="fill:#ffffff;fill-opacity:1;stroke:#000000;stroke-width:1.88866591;stroke-linecap:round;stroke-linejoin:round;stroke-miterlimit:4;stroke-opacity:1;stroke-dasharray:none;stroke-dashoffset:3.00300009" />
    </g>
  </g>
</svg>
